<svg xmlns="http://www.w3.org/2000/svg" viewBox="0 0 206 206"><defs><style>.cls-1{fill:#e8a7b7;}.cls-2{fill:#fff;}</style></defs><g id="Layer_2" data-name="Layer 2"><g id="Layer_2-2" data-name="Layer 2"><circle class="cls-1" cx="103" cy="103" r="103"/><path class="cls-2" d="M43.56,76q19.13,16.08,38.15,32.3t38.12,32.42q10.76,9.12,21.54,18.2a11.36,11.36,0,0,0,4.89,3.14,11.48,11.48,0,0,0,5.84,1.31,15.45,15.45,0,0,0,10.73-4.45c2.66-2.89,4.63-6.69,4.45-10.73-.18-3.82-1.4-8.17-4.45-10.73q-19.12-16.08-38.15-32.31T86.56,72.75Q75.81,63.63,65,54.56a11.33,11.33,0,0,0-4.88-3.14,11.43,11.43,0,0,0-5.85-1.31,15.43,15.43,0,0,0-10.72,4.45c-2.66,2.89-4.63,6.69-4.45,10.73.17,3.82,1.4,8.17,4.45,10.73Z"/><path class="cls-2" d="M65.05,158.94c13.2-12.21,26.63-24.18,40.49-35.64,10.82-9,21.84-17.64,32.66-26.58q12.45-10.32,24.63-21c2.81-2.45,4.45-7.11,4.45-10.73a15.45,15.45,0,0,0-4.45-10.73c-2.89-2.66-6.69-4.63-10.73-4.45l-4,.55a15.21,15.21,0,0,0-6.7,3.9q-19.51,17-39.69,33.23C90.6,96.49,79.55,105.45,68.8,114.8c-8.53,7.41-16.91,15-25.21,22.68a15.16,15.16,0,0,0,0,21.46c2.89,2.66,6.69,4.63,10.73,4.45a16.37,16.37,0,0,0,10.73-4.45Z"/></g></g></svg>