<svg xmlns="http://www.w3.org/2000/svg" viewBox="0 0 205.81 373.93"><defs><style>.cls-1{fill:#684b49;}.cls-2{fill:#fff;stroke:#000;stroke-miterlimit:10;stroke-width:0.87px;}.cls-3{fill:#f9d4d1;}.cls-4{fill:#ceb1af;}.cls-5{fill:#ff8da4;}.cls-6{fill:#222;}.cls-7{fill:#2467a1;}.cls-8{fill:#1f567f;}</style></defs><g id="Layer_2" data-name="Layer 2"><g id="Layer_2-2" data-name="Layer 2"><path class="cls-1" d="M92.05,1.39C75.73,6.47,70.7,23.53,70.34,24.84,66,40.43,77.26,45.9,72.08,58.71,67.54,69.92,56.77,71.05,53,85.63c-.9,3.45-1.85,7.1-.87,10.42,6.45,21.77,93.94,24.27,102.47,2.6,8.88-22.53-7.09-10.65-16.49-32.13-3.24-7.39,2-8.69-7-37.34-4.68-15-5.78-18.22-9.55-21.71C114.14.59,102.27-1.79,92.05,1.39Z"/><rect class="cls-2" x="0.43" y="172.03" width="204.94" height="201.47" rx="15.83"/><circle cx="165.43" cy="215.45" r="22.14"/><path class="cls-3" d="M126.35,36.56c0,12.35-6.5,22.88-15.63,26.91a20.42,20.42,0,0,1-8.25,1.75A19.93,19.93,0,0,1,96,64.14c-10-3.4-17.37-14.46-17.37-27.58,0-15.83,10.69-28.65,23.88-28.65S126.35,20.73,126.35,36.56Z"/><path class="cls-4" d="M110.72,63.47v7H96V64.14a19.93,19.93,0,0,0,6.51,1.08A20.42,20.42,0,0,0,110.72,63.47Z"/><path class="cls-3" d="M68.16,109.46l-4.61,16.9a50.93,50.93,0,0,0-14.23-.64l7.53-27.58Z"/><path class="cls-5" d="M154.57,98.65l-14.73,12.46-.46.4-1.54,1.32L135,109.51l-.8-.94v.94H73.38v-4.34L69,109.51H68.2l0-.05L56.85,98.14l-3.2-3.2,7.19-8.29A47.51,47.51,0,0,1,92.46,70.43h23.37a18,18,0,0,1,2.44.16h0a53.06,53.06,0,0,1,26.64,16.63l4,4.63L149,92Z"/><path class="cls-3" d="M158.66,127.33a48.56,48.56,0,0,0-14.1,1.11l-4.72-17.33,11.66-10Z"/><path class="cls-6" d="M145,108.66v19.79c-2,.47-4.05,1-6.16,1.56a221.58,221.58,0,0,0-26.28,9.13q-3.4,1.43-6.67,2.9c-4.67-2.42-9.72-4.75-15.06-6.92A177,177,0,0,0,67,127.24c-2.1-.52-4.17-1-6.16-1.37l.51-16.08v-2.85l.52-.47h76.73a23.63,23.63,0,0,1,2.52.13l3.44.34Z"/><path class="cls-7" d="M133.46,171c-.05.15-.11.3-.17.44s-.2.41-.31.61H95.45a148.28,148.28,0,0,1-15.31-5.77c-2-.87-3.94-1.77-5.82-2.71l-.94-.46c-21.93-10.94-36.33-24.86-33-32.54,1.17-2.66,4.33-4.25,8.9-4.83a50.93,50.93,0,0,1,14.23.64c1.49.25,3,.54,4.62.89s3.43.78,5.21,1.26a141.72,141.72,0,0,1,20.2,7.2c4.51,2,8.79,4.11,12.74,6.33,3.31,1.85,6.4,3.76,9.21,5.68,6.76,4.61,12,9.31,15.09,13.56a20.68,20.68,0,0,1,2,3.28C133.78,167,134.1,169.13,133.46,171Z"/><path class="cls-8" d="M95.45,172H73.38v-7.42l0,0c.28-.34.6-.69.92-1,1.88.94,3.83,1.84,5.82,2.71A148.28,148.28,0,0,0,95.45,172Z"/><path class="cls-8" d="M134.17,159.46c-1.17.61-2.35,1.22-3.55,1.82-3.1-4.25-8.33-8.95-15.09-13.56-2.81-1.92-5.9-3.83-9.21-5.68,1.84-.9,3.71-1.78,5.63-2.65A180.48,180.48,0,0,1,134.17,131c1.79-.52,3.52-1,5.21-1.42s3.52-.84,5.18-1.17a48.56,48.56,0,0,1,14.1-1.11c3.39.37,5.68,1.46,6.51,3.31C167.87,136.63,154.53,148.68,134.17,159.46Z"/><path class="cls-6" d="M79,164.59v0c-2.18,2.58-3.42,4.91-3.55,6.86a63.68,63.68,0,0,1-8.6.56c-9.6,0-17.37-1.94-17.37-4.34s7.77-4.34,17.37-4.34A53.84,53.84,0,0,1,79,164.59Z"/><path class="cls-6" d="M158.92,167.69c0,2.4-7.94,4.34-17.73,4.34a60.47,60.47,0,0,1-10.93-.92v-6.84a60.47,60.47,0,0,1,10.93-.92C151,163.35,158.92,165.29,158.92,167.69Z"/><circle cx="45.59" cy="334.42" r="22.14"/></g></g></svg>