<svg xmlns="http://www.w3.org/2000/svg" xmlns:xlink="http://www.w3.org/1999/xlink" viewBox="0 0 280.12 419.94"><defs><style>.cls-1{fill:none;}.cls-2{fill:#7395ae;}.cls-3{fill:#f2f3f4;}.cls-4{clip-path:url(#clip-path);}.cls-5{fill:#617d8e;}.cls-6{fill:#a7eaaa;}.cls-7{fill:#fff;}.cls-8{fill:#261513;}.cls-9{fill:#f9d4d1;}.cls-10{fill:#ceb1af;}.cls-11{fill:#ff8da4;}.cls-12{fill:#2467a1;}.cls-13{fill:#1f567f;}.cls-14{fill:#222;}.cls-15{fill:#e8a7b7;}</style><clipPath id="clip-path" transform="translate(-1.54 -36.71)"><rect class="cls-1" width="282" height="383"/></clipPath></defs><g id="Layer_2" data-name="Layer 2"><g id="Layer_2-2" data-name="Layer 2"><rect class="cls-2" width="280.12" height="383.64" rx="13.58"/><rect class="cls-3" x="20.97" y="19.06" width="239.11" height="327.47" rx="11.59"/><g class="cls-4"><circle class="cls-5" cx="145.01" cy="328.75" r="11.04"/><circle class="cls-6" cx="140.12" cy="90.87" r="41.58"/><path class="cls-7" d="M113.86,129.36,128,151a6,6,0,0,0,10.25,0,232.32,232.32,0,0,1,14.36-21.09l.42-.54c-.47.6-.5.65-.1.13s.65-.83,1-1.25c.65-.82,1.31-1.65,2-2.46,1.33-1.64,2.69-3.26,4.06-4.86q4.2-4.87,8.67-9.52c2.15-2.24,2.39-6.2,0-8.4a6,6,0,0,0-8.4,0A238.82,238.82,0,0,0,128,145h10.25l-14.12-21.64c-1.7-2.59-5.34-3.92-8.13-2.13-2.59,1.68-3.94,5.34-2.12,8.13Z" transform="translate(-1.54 -36.71)"/><path class="cls-8" d="M93.3,363.71l5.26-5.26v6.38h0v.4C96.73,364.75,95,364.25,93.3,363.71Z" transform="translate(-1.54 -36.71)"/><path class="cls-8" d="M189.17,364.83l1.18,1.36c-.8.21-1.6.41-2.42.6l.07-2h0v-1.38Z" transform="translate(-1.54 -36.71)"/><path class="cls-8" d="M213.35,352.81l4.27-3.6a17.24,17.24,0,0,1-3.76,5.47,36.56,36.56,0,0,1-11.58,7.48l-.64.27,11.61-10Z" transform="translate(-1.54 -36.71)"/><path class="cls-8" d="M217.84,348.69l-8-9.6-.17-.19-5.89-6.81a77.94,77.94,0,0,0-39.19-24.41,25,25,0,0,0-3.59-.24H126.63a70,70,0,0,0-46.52,23.81L69.54,343.44l4.69,4.69h0L88,361.86l-.06,0c-6.24-2.4-11.43-5.27-15.11-8.58a18.17,18.17,0,0,1-5.56-8.2c-1.44-4.88,0-10.24,1.28-15.31,5.57-21.4,21.39-23.06,28.05-39.53,7.61-18.81-8.89-26.84-2.55-49.74.54-1.93,7.92-27,31.89-34.44,15-4.67,32.45-1.17,43.36,8.93,5.54,5.13,7.16,9.89,14,31.89,13.14,42.07,5.45,44,10.2,54.84C207.31,333.18,230.7,315.87,217.84,348.69Z" transform="translate(-1.54 -36.71)"/><path class="cls-9" d="M176.31,257.7c0,18.13-9.55,33.59-22.95,39.51a29.84,29.84,0,0,1-12.12,2.57,29.4,29.4,0,0,1-9.56-1.58c-14.72-5-25.51-21.23-25.51-40.5,0-23.25,15.7-42.09,35.07-42.09S176.31,234.45,176.31,257.7Z" transform="translate(-1.54 -36.71)"/><path class="cls-10" d="M153.36,297.21v10.23H131.68V298.2a29.4,29.4,0,0,0,9.56,1.58A29.84,29.84,0,0,0,153.36,297.21Z" transform="translate(-1.54 -36.71)"/><path class="cls-9" d="M90.85,364.75l-6.77,24.83c-8.11-1.34-15.24-1.67-20.89-.94l11-40.51Z" transform="translate(-1.54 -36.71)"/><path class="cls-11" d="M217.84,348.69c0,.06-.05.13-.08.2s-.09.21-.14.32l-4.27,3.6-.1-.38-11.61,10a80.71,80.71,0,0,1-11.29,3.76l-1.18-1.36L188,363.45v1.38h0l-.07,2-1,29.91a265.67,265.67,0,0,0-31.75,12c-2.82,1.28-5.57,2.58-8.28,3.89-5.8-3.25-12.08-6.37-18.71-9.29a209.2,209.2,0,0,0-29.66-10.58v-27.9h0v-6.38l-5.26,5.26c-1.84-.58-3.61-1.19-5.3-1.85L74.24,348.13h0l-4.69-4.69,10.57-12.19a70,70,0,0,1,46.52-23.81H161a25,25,0,0,1,3.59.24,77.94,77.94,0,0,1,39.19,24.41l5.89,6.81.17.19Z" transform="translate(-1.54 -36.71)"/><path class="cls-11" d="M88,361.86c1.69.66,3.46,1.27,5.3,1.85l-1.12,1.12H91l-.06-.08Z" transform="translate(-1.54 -36.71)"/><path class="cls-11" d="M213.25,352.43l.1.38-11.07,9.35-6,5-.16.14-.51.44-2.27,1.94-3-3.52a80.71,80.71,0,0,0,11.29-3.76Z" transform="translate(-1.54 -36.71)"/><path class="cls-11" d="M218,348.89l-.38.32c0-.11.1-.21.14-.32s.05-.14.08-.2Z" transform="translate(-1.54 -36.71)"/><path class="cls-11" d="M186.92,396.7l-.65,19.12H98.52V392.73a209.2,209.2,0,0,1,29.66,10.58c6.63,2.92,12.91,6,18.71,9.29,2.71-1.31,5.46-2.61,8.28-3.89A265.67,265.67,0,0,1,186.92,396.7Z" transform="translate(-1.54 -36.71)"/><path class="cls-9" d="M223.76,391c-5.27-.6-12.37,0-20.7,1.63l-6.9-25.3,0-.14,5.52-4.76,11.61-10,.1.38.51,1.87Z" transform="translate(-1.54 -36.71)"/><path class="cls-12" d="M186.75,455.11c-.07.22-.16.43-.24.64l-.12.23c-.11.23-.22.45-.34.67H130.94a215.31,215.31,0,0,1-22.5-8.48L105.79,447c-1.69-.78-3.36-1.56-5-2.37l-.89-.44c-.46-.21-.92-.44-1.38-.67C66.31,427.45,45.16,407,50.12,395.73c1.71-3.9,6.35-6.24,13.07-7.09,5.65-.73,12.78-.4,20.89.94q3.28.54,6.79,1.3c2.47.54,5,1.15,7.65,1.85a209.2,209.2,0,0,1,29.66,10.58c6.63,2.92,12.91,6,18.71,9.29,1.9,1.06,3.75,2.14,5.54,3.22q4.2,2.54,8,5.12c9.93,6.78,17.62,13.68,22.16,19.92a32.67,32.67,0,0,1,2.46,3.89c.17.31.32.62.47.92C187.22,449.19,187.69,452.39,186.75,455.11Z" transform="translate(-1.54 -36.71)"/><path class="cls-13" d="M130.94,456.65H98.52v-10.9s0,0,0,0c.42-.49.88-1,1.36-1.53,2.76,1.38,5.62,2.71,8.54,4A215.31,215.31,0,0,0,130.94,456.65Z" transform="translate(-1.54 -36.71)"/><path class="cls-13" d="M187.79,438.19c-1.71.9-3.44,1.79-5.21,2.67-4.54-6.24-12.23-13.14-22.16-19.92q-3.78-2.58-8-5.12c-1.79-1.08-3.64-2.16-5.54-3.22,2.71-1.31,5.46-2.61,8.28-3.89a265.67,265.67,0,0,1,31.75-12l.87-.26c2.63-.77,5.18-1.46,7.66-2.09s5.17-1.23,7.61-1.72c8.33-1.64,15.43-2.23,20.7-1.63,5,.55,8.34,2.14,9.56,4.86C237.29,404.66,217.7,422.36,187.79,438.19Z" transform="translate(-1.54 -36.71)"/><path class="cls-14" d="M106.81,445.72v0c-3.2,3.79-5,7.22-5.22,10.07a91,91,0,0,1-12.64.83c-14.09,0-25.5-2.85-25.5-6.37S74.86,443.9,89,443.9A79.07,79.07,0,0,1,106.81,445.72Z" transform="translate(-1.54 -36.71)"/><path class="cls-14" d="M224.14,450.28c0,3.52-11.65,6.37-26,6.37a88.65,88.65,0,0,1-16.06-1.35V445.25a88.65,88.65,0,0,1,16.06-1.35C212.49,443.9,224.14,446.76,224.14,450.28Z" transform="translate(-1.54 -36.71)"/></g><circle class="cls-5" cx="138.61" cy="366.12" r="11.04"/><circle class="cls-15" cx="143.05" cy="95.7" r="45.92"/><path class="cls-7" d="M118.08,120.38c14.59,12.27,29,24.71,43.61,37a7.26,7.26,0,0,0,4.79,2,6.85,6.85,0,0,0,4.78-2c2.3-2.5,2.89-7.13,0-9.56-14.59-12.27-29-24.71-43.61-37a7.27,7.27,0,0,0-4.79-2,6.89,6.89,0,0,0-4.78,2c-2.3,2.51-2.89,7.14,0,9.57Z" transform="translate(-1.54 -36.71)"/><path class="cls-7" d="M127.66,157.35c5.88-5.43,11.85-10.75,18-15.85,4.84-4,9.78-7.9,14.62-11.91,3.7-3.06,7.34-6.17,11-9.32,2.68-2.33,2.57-7.21,0-9.57a6.93,6.93,0,0,0-9.57,0c-10.6,9.24-21.77,17.77-32.38,27-3.8,3.3-7.52,6.68-11.22,10.1a6.81,6.81,0,0,0,0,9.56,6.91,6.91,0,0,0,9.57,0Z" transform="translate(-1.54 -36.71)"/></g></g></svg>