<svg xmlns="http://www.w3.org/2000/svg" viewBox="0 0 205.99 205.99"><defs><style>.cls-1{fill:#a7eaaa;}.cls-2{fill:#fff;}</style></defs><g id="Layer_2" data-name="Layer 2"><g id="Layer_2-2" data-name="Layer 2"><circle class="cls-1" cx="102.99" cy="102.99" r="102.99"/><path class="cls-2" d="M34.13,107.38,61.4,149.13,69.13,161c2.87,4.4,7.31,7.28,12.69,7.28A14.89,14.89,0,0,0,94.52,161q13.24-22,28.44-42.74,4.33-5.92,8.84-11.75l-2.3,3q14.67-19,30.9-36.67,4.59-5,9.29-9.89A15.26,15.26,0,0,0,174,52.51a15,15,0,0,0-4.31-10.4c-2.8-2.57-6.48-4.48-10.39-4.3a15.12,15.12,0,0,0-10.4,4.3q-17.33,18-33,37.5c-11.1,13.78-21.68,28-31.55,42.67Q76.42,134,69.13,146.13H94.52L67.25,104.38,59.52,92.54a15.6,15.6,0,0,0-8.79-6.76,15,15,0,0,0-11.32,1.49c-3.14,2-5.9,5-6.76,8.78s-.68,8,1.48,11.33Z"/></g></g></svg>