<svg xmlns="http://www.w3.org/2000/svg" viewBox="0 0 815.46 53.35"><defs><style>.cls-1{fill:#fff;}</style></defs><g id="Layer_2" data-name="Layer 2"><g id="Layer_1-2" data-name="Layer 1"><path class="cls-1" d="M10.51.55h53l.25.26v11l-.25.26H14.62V42.44H63.49l.25.26c0,2.54-1.17,5.14-3.49,7.8A10.32,10.32,0,0,1,53.37,53h-43q-7.6,0-10-8.06L0,42.07V11.46A11.07,11.07,0,0,1,4.93,2,10.62,10.62,0,0,1,10.51.55Z"/><path class="cls-1" d="M81,.33h43.22q7.38,0,10,7.4a13,13,0,0,1,.61,3.62v31A11.23,11.23,0,0,1,129.68,52a10.78,10.78,0,0,1-5.4,1.37H80.84q-7.7,0-10.15-8.14l-.36-2.88v-31a11.07,11.07,0,0,1,5-9.5A10.53,10.53,0,0,1,81,.33ZM85.09,12V42.7H120V12Z"/><path class="cls-1" d="M140.88.44h53.47q7,0,9.55,7.43a10.21,10.21,0,0,1,.61,3.48V42.18a11.56,11.56,0,0,1-4.36,9.06A11.07,11.07,0,0,1,194.46,53H140.88l-.25-.26V.7ZM155.28,12V42.4h34.57V12Z"/><path class="cls-1" d="M211,.85h62.87l.25.26V12.05l-.25.26H225.15V41.52h48.72l.25.26V52.72l-.25.26H211l-.26-.26V1.11Zm18.72,21h40.33l.22.22V33l-.22.26H229.72l-.25-.26V22Z"/><path class="cls-1" d="M298.33,0h64.31l.25.26V11.5l-.25.26H337.86V53.09l-.25.26H323.24l-.25-.26V11.76H298.33l-.26-.26V.3Z"/><path class="cls-1" d="M379.14.33h43.21q7.38,0,10,7.4a13,13,0,0,1,.62,3.62v31A11.22,11.22,0,0,1,427.86,52a10.78,10.78,0,0,1-5.4,1.37H379q-7.71,0-10.16-8.14l-.36-2.88v-31a11.07,11.07,0,0,1,5-9.5A10.57,10.57,0,0,1,379.14.33ZM383.28,12V42.7h34.93V12Z"/><path class="cls-1" d="M467.62.55h53l.25.26v11l-.25.26H471.73V42.44h48.86l.25.26q0,3.81-3.49,7.8A10.3,10.3,0,0,1,510.47,53h-43q-7.61,0-10-8.06l-.36-2.85V11.46A11.08,11.08,0,0,1,462,2,10.62,10.62,0,0,1,467.62.55Z"/><path class="cls-1" d="M528.05.63h14.08l.25.26v52.2l-.25.26H528.05l-.26-.26V.89Zm49.76,0H591.9l.25.26v52.2l-.25.26H577.81l-.25-.26V33.42H547l-.25-.26V22.07l.25-.26h30.57V.89Z"/><path class="cls-1" d="M646.85,0q.43.3,11.09,20.7l17.25,32.24-.14.11H657.36q-.36,0-4.53-8.28l-.61-.74H635.36l-1.73.11L632.05,44h-8.43v-.26l6.12-11.16H637l1.94-.11,2,.11h5.47V32.5q-9.39-18-10-18.82L615.7,53.05H598l-.25-.26L626.07.11l.11-.11Z"/><path class="cls-1" d="M691,.33h43.22q7.38,0,10,7.4a13,13,0,0,1,.61,3.62v31A11.23,11.23,0,0,1,739.69,52a10.78,10.78,0,0,1-5.4,1.37H690.85q-7.7,0-10.15-8.14l-.36-2.88v-31a11.07,11.07,0,0,1,5-9.5A10.56,10.56,0,0,1,691,.33ZM695.1,12V42.7H730V12Z"/><path class="cls-1" d="M760.39.33h45.67c2.85,0,5.34,1.47,7.45,4.4a12.85,12.85,0,0,1,2,6.51v.37l-.25.26H765.76v9.65h39.18q7.71,0,10.16,8.13l.36,2.88v9.65a11.37,11.37,0,0,1-4.9,9.54,13,13,0,0,1-4.5,1.52l-.11.11H760.5a8.72,8.72,0,0,0-2.55-.63A9.89,9.89,0,0,1,752.47,48,14.12,14.12,0,0,1,751,42.7l.1-.15h49.59V33.16H761.51q-7.71,0-10.15-8.13L751,22.15V11.24a11.33,11.33,0,0,1,5.11-9.65A9.64,9.64,0,0,1,760.39.33Z"/></g></g></svg>