<svg xmlns="http://www.w3.org/2000/svg" viewBox="0 0 430.63 394.29"><title>Asset 3</title><g id="Layer_2" data-name="Layer 2"><g id="Layer_2_copy" data-name="Layer 2 copy"><path d="M286.65,0,143.32,82.75v165.5L193.07,277l-.07,0,21.92,12.65.07,0L286.65,331,430,248.25V82.75ZM165.24,235.59V95.4L215,66.68,264.73,95.4V235.59L215,264.31Zm242.82,0L286.65,305.68,236.9,277l49.75-28.72V82.75L236.9,54l49.75-28.72L408.06,95.4Z"/><polygon points="21.92 152.84 0 165.5 0 223.02 0 223.02 21.92 210.37 21.92 152.84"/><polygon points="21.99 235.63 0.07 248.29 71.73 289.66 93.65 277.01 21.99 235.63"/><polygon points="121.41 37.96 121.41 12.74 121.33 12.7 22.03 70.03 43.94 82.69 121.41 37.96"/><polygon points="21.92 95.4 22.03 95.34 0.11 82.69 0 82.75 0 140.19 21.92 127.53 21.92 95.4"/><polygon points="143.32 25.31 169.39 40.36 191.31 27.7 143.32 0 143.32 0.08 143.32 0.08 143.32 25.31"/><polygon points="143.32 305.69 115.57 289.66 93.65 302.31 143.32 330.99 193 302.31 171.08 289.66 143.32 305.69"/><path d="M.69,364.74a.44.44,0,0,1,.5-.5h4a.74.74,0,0,1,.7.36l12.55,12L31,364.6a1.09,1.09,0,0,1,.78-.36h3.76c.33,0,.49.12.49.36a1.61,1.61,0,0,1-.56,1.06L19.82,380.83a2.85,2.85,0,0,1-.35.28,1.74,1.74,0,0,1-1,.28,1.72,1.72,0,0,1-1-.28,3,3,0,0,1-.36-.28L5.37,369.56v23.52a1.21,1.21,0,0,1-1.21,1.21H1.89a1.2,1.2,0,0,1-1.2-1.21Zm35.22,28.34a1.2,1.2,0,0,1-1.2,1.21H32.37a1.21,1.21,0,0,1-1.21-1.21V374.94a1.38,1.38,0,0,1,.22-.67,4.52,4.52,0,0,1,.49-.74l3.19-3.19a1,1,0,0,1,.64-.36q.21,0,.21.36Z"/><path d="M73.61,365.45a1.93,1.93,0,0,1,.74-.85,1.86,1.86,0,0,1,1-.36h2.55a1.84,1.84,0,0,1,1,.36,2.55,2.55,0,0,1,.82.85l14.66,27.63a2.34,2.34,0,0,1,.15.57c0,.43-.24.64-.71.64H90.62a1.46,1.46,0,0,1-1.28-.85L86,387.2H72.19c-.47,0-.71-.21-.71-.63a2.14,2.14,0,0,1,.15-.57l1.13-2.2A1.48,1.48,0,0,1,74,383h9.7l-7.15-14L64.11,393.44a1.22,1.22,0,0,1-.53.6,1.36,1.36,0,0,1-.74.25H59.79c-.47,0-.71-.21-.71-.64a2.68,2.68,0,0,1,.14-.57Z"/><path d="M110.67,365.45a1.23,1.23,0,0,1,1.21-1.21H140a1.14,1.14,0,0,1,.89.36,1.23,1.23,0,0,1,.32.85v2.05a1.23,1.23,0,0,1-.32.85,1.14,1.14,0,0,1-.89.36H111.88a1.23,1.23,0,0,1-1.21-1.21Zm12.69,8a1.06,1.06,0,0,1,1.2-1.2h2.7a1.06,1.06,0,0,1,1.2,1.2v19.63a1.25,1.25,0,0,1-.32.86,1.14,1.14,0,0,1-.88.35h-2.7a1.13,1.13,0,0,1-.88-.35,1.21,1.21,0,0,1-.32-.86Z"/><path d="M161,365.45a1.13,1.13,0,0,1,.35-.85,1.16,1.16,0,0,1,.85-.36h28.13a1.12,1.12,0,0,1,.89.36,1.23,1.23,0,0,1,.32.85v2.05a1.23,1.23,0,0,1-.32.85,1.12,1.12,0,0,1-.89.36H162.19a1.16,1.16,0,0,1-.85-.36,1.13,1.13,0,0,1-.35-.85Zm12.68,8a1.06,1.06,0,0,1,1.21-1.2h2.69a1.06,1.06,0,0,1,1.2,1.2v19.63a1.21,1.21,0,0,1-.32.86,1.13,1.13,0,0,1-.88.35h-2.69a1.15,1.15,0,0,1-.89-.35,1.25,1.25,0,0,1-.32-.86Z"/><path d="M218.46,389.83h21.47a1.2,1.2,0,0,1,1.2,1.2v2.05a1.15,1.15,0,0,1-.35.86,1.19,1.19,0,0,1-.85.35h-25a1.15,1.15,0,0,1-.84-.35,1.19,1.19,0,0,1-.35-.86V365.45a1.17,1.17,0,0,1,.35-.85,1.12,1.12,0,0,1,.84-.36h24.75a1.16,1.16,0,0,1,.85.36,1.17,1.17,0,0,1,.35.85v2.05a1.17,1.17,0,0,1-.35.85,1.16,1.16,0,0,1-.85.36H218.46Zm3.75-12.19a1.23,1.23,0,0,1,1.21-1.21H238a1.16,1.16,0,0,1,.85.36,1.17,1.17,0,0,1,.35.85v2.05a1.15,1.15,0,0,1-.35.89,1.25,1.25,0,0,1-.85.32H223.42a1.23,1.23,0,0,1-.85-.32,1.12,1.12,0,0,1-.36-.89Z"/><path d="M283.94,364.24a9.28,9.28,0,0,1,3.65.71,8.69,8.69,0,0,1,2.87,1.95,9.54,9.54,0,0,1,1.91,2.87,8.85,8.85,0,0,1,.71,3.54,8.68,8.68,0,0,1-2,5.78,9,9,0,0,1-5,3.08l8.08,10.91a1.41,1.41,0,0,1,.21.71c0,.33-.18.5-.56.5h-3.9a1,1,0,0,1-.46-.14,1,1,0,0,1-.39-.36l-8.43-11.34h-5.39a1.15,1.15,0,0,1-.85-.35,1.13,1.13,0,0,1-.35-.85v-1.84a1.13,1.13,0,0,1,.35-.85,1.16,1.16,0,0,1,.85-.36h8.5a4.59,4.59,0,0,0,4.82-4.82,4.43,4.43,0,0,0-1.41-3.33,4.81,4.81,0,0,0-3.41-1.34H270.26v24.37a1.2,1.2,0,0,1-1.2,1.21H266.5a1.2,1.2,0,0,1-1.2-1.21V365.45a1.17,1.17,0,0,1,.35-.85,1.16,1.16,0,0,1,.85-.36Z"/><path d="M318.17,365.45a1.13,1.13,0,0,1,.35-.85,1.16,1.16,0,0,1,.85-.36h2.69a1.23,1.23,0,0,1,1.21,1.21v27.63a1.21,1.21,0,0,1-1.21,1.21h-2.69a1.19,1.19,0,0,1-.85-.35,1.15,1.15,0,0,1-.35-.86Z"/><path d="M348.57,392.59a2.27,2.27,0,0,1,.25-1.06,11,11,0,0,1,.6-1.07l16.08-18.07a3.39,3.39,0,0,1,.64-.49,1.31,1.31,0,0,1,.71-.22h4.61q.42,0,.42.36a.74.74,0,0,1-.28.49l-15.38,17.3h19.63a1.12,1.12,0,0,1,.89.35,1.25,1.25,0,0,1,.32.85v2.05a1.25,1.25,0,0,1-.32.86,1.15,1.15,0,0,1-.89.35H349.77a1.08,1.08,0,0,1-.85-.42A2,2,0,0,1,348.57,392.59Zm1.84-27.14a1.15,1.15,0,0,1,.35-.89,1.25,1.25,0,0,1,.86-.32h24.8c.47,0,.71.17.71.5a3.74,3.74,0,0,1-1.21,2.8,4,4,0,0,1-2.9,1.17h-21.4a1.21,1.21,0,0,1-1.21-1.21Z"/><path d="M408,389.83h21.48a1.15,1.15,0,0,1,.85.35,1.19,1.19,0,0,1,.35.85v2.05a1.2,1.2,0,0,1-1.2,1.21h-25a1.18,1.18,0,0,1-1.18-1.21V365.45a1.2,1.2,0,0,1,1.18-1.21h24.75a1.23,1.23,0,0,1,1.21,1.21v2.05a1.23,1.23,0,0,1-1.21,1.21H408Zm3.76-12.19a1.21,1.21,0,0,1,1.21-1.21h14.52a1.23,1.23,0,0,1,1.21,1.21v2.05a1.12,1.12,0,0,1-.36.89,1.23,1.23,0,0,1-.85.32H412.92a1.25,1.25,0,0,1-.86-.32,1.15,1.15,0,0,1-.35-.89Z"/></g></g></svg>