<svg id="Layer_1" data-name="Layer 1" xmlns="http://www.w3.org/2000/svg" viewBox="0 0 1164.44 665.4"><defs><style>.cls-1{fill:#fff;}.cls-2{fill:none;}</style></defs><path class="cls-1" d="M718,676.22V730c-.91,23.71-11.89,42-31.1,53.8-31.11,18.24-62.22,35.57-94.24,53.81-10.06,6.39-21,0-22-11.85V718.17c0-26.45,11.9-46.51,34.77-59.28,30.19-17.33,60.38-34.66,89.66-52,7.32-4.56,15.55-2.74,20.13,3.64,2.74,3.65,2.74,7.3,2.74,11v54.72Zm-82.34,83c0-6.38-1.83-10-6.4-11.86-4.58-2.73-8.24-1.82-11.9.92a32.44,32.44,0,0,0-15.55,28.27c0,4.56,1.83,8.21,5.49,10,3.66,2.74,8.23,1.82,11.89-.91C629.26,779.27,634.75,770.15,635.66,759.21Zm53.07-93.94c0-4.56-.92-8.2-5.49-10.94s-8.24-1.82-11.9.91c-10.06,6.39-15.55,16.42-14.63,28.27,0,9.12,9.14,13.68,16.46,9.12C683.24,686.25,687.81,677.13,688.73,665.27Z" transform="translate(-137.78 -387.52)"/><path class="cls-1" d="M565.21,766.51v54.72c0,3.64,0,7.29-2.74,10.94-4.58,6.38-11.9,7.3-19.21,3.65-24.71-14.59-49.41-28.27-73.2-42-7.32-4.56-14.64-8.21-22-12.77-21-12.77-32-31.92-32-56.55V618.76c0-11.85,11.9-20.06,22.87-12.77,31.11,18.24,62.22,35.57,92.41,53.81,22.87,12.77,33.85,32.83,33.85,58.37Zm-63.13-70.23q1.38,17.79,16.47,27.36c3.66,2.74,7.32,2.74,11.9,0,3.66-2.73,6.4-6.38,5.49-10.94q-1.38-17.79-16.47-27.36a9.64,9.64,0,0,0-11.9,0C503.91,689,502.08,691.72,502.08,696.28Zm-21,48.34c-.91-11.86-6.4-21-17.38-27.36-7.32-4.56-16.47.91-16.47,10a30.75,30.75,0,0,0,16.47,27.36,9.63,9.63,0,0,0,11.89,0C480.13,753.74,482,749.18,481,744.62Z" transform="translate(-137.78 -387.52)"/><path class="cls-1" d="M871.71,768.33v53.81c0,13.68-11.89,20.06-23.79,13.68-30.19-18.24-61.3-35.57-92.4-52.9-22.88-12.77-33.85-32.83-33.85-58.37V619.67c0-9.12,7.32-16.41,16.46-15.5a9.89,9.89,0,0,1,6.41,2.74c31.11,18.24,63.13,35.56,94.24,53.8,22,12.77,32,31.92,32.93,57.46Zm-118-98.5c.91,10,6.4,19.16,16.47,25.54,3.66,2.74,7.32,1.82,11.89,0,3.66-2.74,5.49-6.38,5.49-10-.92-11.86-6.4-21.89-16.47-27.36-3.66-2.74-7.32-2.74-11.89,0S753.69,663.45,753.69,669.83Zm88.74,106.71c-.91-10-6.4-19.15-15.55-25.54-3.66-2.73-8.23-3.65-11.89-.91-4.58,2.74-5.49,6.38-5.49,11.86.91,11.85,6.4,20.06,16.47,26.44,3.66,2.74,7.32,2.74,11.89,0C840.6,786.57,842.43,782.92,842.43,776.54Z" transform="translate(-137.78 -387.52)"/><path class="cls-1" d="M568,664.36a64.25,64.25,0,0,1-32-8.21c-31.11-18.24-62.22-35.56-92.41-53.8-11-6.39-11-20.07,0-26.45,31.11-18.24,62.21-36.48,94.24-53.81,22-11.86,43.91-11.86,65,0,31.1,17.33,61.29,35.57,92.4,52.9,11,6.38,11,20.06,0,26.44C664,619.67,632,637.91,600,656.15A64.28,64.28,0,0,1,568,664.36Zm-56.73-61.1c6.41,0,11.9-1.83,17.39-4.56a11.09,11.09,0,0,0,0-19.15c-11-6.39-22.88-6.39-33.85,0a11.09,11.09,0,0,0,0,19.15C500.25,601.43,505.74,603.26,511.23,603.26Zm107-.91c8.23,0,14.64-1.83,19.21-4.56a11.1,11.1,0,0,0,0-19.16q-16.47-9.57-32.94,0c-8.23,4.56-8.23,14.6,0,19.16A22.41,22.41,0,0,0,618.28,602.35Z" transform="translate(-137.78 -387.52)"/><path class="cls-1" d="M874.46,664.36c-11.9,0-22.88-2.73-32-8.21-31.1-18.24-61.3-35.56-92.4-53.8-11-6.39-11-20.07,0-26.45,31.1-18.24,63.13-36.48,95.15-54.72,21-11.86,43-11.86,65,0,31.11,17.33,61.3,35.57,92.4,52.89,11,6.39,11,20.07,0,26.45-31.1,18.24-63.13,35.57-94.23,53.81C896.41,661.63,885.44,664.36,874.46,664.36ZM818.65,575c-6.41,0-11,.91-16.47,4.56-4.58,2.73-6.41,5.47-6.41,10.94a11.21,11.21,0,0,0,6.41,10c11,5.47,22,5.47,32-.91,8.23-4.56,7.32-14.59,0-19.15A24.88,24.88,0,0,0,818.65,575Zm108.87,0a33.67,33.67,0,0,0-16.47,3.64c-4.57,2.74-6.4,5.48-6.4,10a11.21,11.21,0,0,0,6.4,10c11,5.47,22,5.47,32-.91a11.1,11.1,0,0,0,0-19.16C938.5,575.9,933,575,927.52,575Z" transform="translate(-137.78 -387.52)"/><path class="cls-1" d="M876.29,768.33V713.61c.91-23.71,11.89-42,32-53.81,30.19-18.24,61.3-35.57,92.4-52.89,11.9-6.39,22.88,0,22.88,12.76v93.94c0,9.12,0,19.15-1.83,28.27-3.66,18.24-14.64,32.83-31.11,42-31.11,18.24-61.3,35.57-92.41,53.81-11,6.39-22.87,0-22.87-12.77.92-19.15.92-37.39.92-56.54Zm65-9.12c0-4.56-.92-8.21-5.49-10.94s-8.24-1.83-11.9.91c-10.06,6.38-14.64,15.5-14.64,27.36,0,4.56,1.83,8.21,6.41,10.94a9.73,9.73,0,0,0,11-.91C935.76,779.27,941.25,771.07,941.25,759.21Zm21-77.52c0,4.56,1.83,8.21,6.4,10.94s8.24.92,11.9-.91c9.15-6.38,14.63-15.5,14.63-27.36,0-9.12-9.14-14.59-16.46-9.12C967.78,660.71,963.2,669.83,962.29,681.69Z" transform="translate(-137.78 -387.52)"/><rect class="cls-2" width="1164.44" height="665.4"/><path class="cls-1" d="M1016.47,517a7.38,7.38,0,0,1-.05,1,2.56,2.56,0,0,1-.15.68.94.94,0,0,1-.26.38.52.52,0,0,1-.34.12H1009v21.36a.55.55,0,0,1-.13.36,1,1,0,0,1-.44.27,4.21,4.21,0,0,1-.83.16,14.11,14.11,0,0,1-2.6,0,4.06,4.06,0,0,1-.83-.16.92.92,0,0,1-.44-.27.55.55,0,0,1-.13-.36V519.21H997a.55.55,0,0,1-.35-.12,1,1,0,0,1-.24-.38,2.56,2.56,0,0,1-.15-.68,7.21,7.21,0,0,1-.06-1,7.57,7.57,0,0,1,.06-1,2.55,2.55,0,0,1,.15-.69,1,1,0,0,1,.24-.37.61.61,0,0,1,.35-.11h18.67a.58.58,0,0,1,.34.11.9.9,0,0,1,.26.37,2.55,2.55,0,0,1,.15.69A7.76,7.76,0,0,1,1016.47,517Z" transform="translate(-137.78 -387.52)"/><path class="cls-1" d="M1050.48,540.57a.66.66,0,0,1-.11.36.86.86,0,0,1-.41.27,3.88,3.88,0,0,1-.79.16,10.75,10.75,0,0,1-1.25.06,10.5,10.5,0,0,1-1.23-.06,3.77,3.77,0,0,1-.78-.16.92.92,0,0,1-.41-.27.6.6,0,0,1-.12-.36V519h0l-7.68,21.53a.92.92,0,0,1-.26.44,1.33,1.33,0,0,1-.5.28,3.43,3.43,0,0,1-.81.13c-.33,0-.73,0-1.19,0a10.25,10.25,0,0,1-1.19,0,3.13,3.13,0,0,1-.81-.16,1.39,1.39,0,0,1-.5-.28.76.76,0,0,1-.24-.39L1024.74,519h0v21.56a.59.59,0,0,1-.11.36.77.77,0,0,1-.42.27,4,4,0,0,1-.79.16,10.33,10.33,0,0,1-1.24.06,10.2,10.2,0,0,1-1.22-.06,3.74,3.74,0,0,1-.79-.16.77.77,0,0,1-.41-.27.59.59,0,0,1-.11-.36V517a2.16,2.16,0,0,1,.55-1.6,2,2,0,0,1,1.47-.55h3.52a7.57,7.57,0,0,1,1.62.15,3.46,3.46,0,0,1,1.17.51,2.93,2.93,0,0,1,.82.95,7.08,7.08,0,0,1,.57,1.44l5.73,15.78h.09l5.93-15.74a7.77,7.77,0,0,1,.59-1.45,3.38,3.38,0,0,1,.73-1,2.58,2.58,0,0,1,1-.52,5.24,5.24,0,0,1,1.33-.15h3.62a2.93,2.93,0,0,1,1,.14,1.7,1.7,0,0,1,.66.42,1.89,1.89,0,0,1,.39.68,2.82,2.82,0,0,1,.13.91Z" transform="translate(-137.78 -387.52)"/><path class="cls-1" d="M747.45,894.19h35.68v-9.12H747.45V927H731.9V873.21h55.81c8.23,0,11.89,4.56,11.89,11.86v10a10.55,10.55,0,0,1-11,10.94H781.3c7.32,7.3,13.73,13.68,21,21.89h-6.4c-4.57,0-11,.91-14.64-.91-4.57-1.83-7.32-6.39-11-10-6.4-6.39-12.81-11.86-19.21-18.24A16.07,16.07,0,0,1,747.45,894.19Z" transform="translate(-137.78 -387.52)"/><path class="cls-1" d="M279,884.15v10h39.34c8.24,0,11.9,3.64,11.9,11.85v9.12c0,6.39-4.58,11-11.9,11H274.44c-7.32,0-11-3.65-11.9-11h51.24V906H274.43c-8.23,0-11.89-3.65-11.89-11.85v-11c0-7.29,4.57-10.94,11.89-10.94h43.92c7.32,0,11.89,3.65,11.89,11.85Z" transform="translate(-137.78 -387.52)"/><path class="cls-1" d="M651.38,884.15H600.15v10H640.4c6.41,0,11,3.64,11,10V917c0,6.38-4.57,10-11,10H594.66a10.55,10.55,0,0,1-11-10.95h51.23V907H595.57c-8.23,0-11.89-3.64-12.81-12.76v-10a10.56,10.56,0,0,1,11-10.94h45.75C646.81,872.3,650.47,876.86,651.38,884.15Z" transform="translate(-137.78 -387.52)"/><path class="cls-1" d="M907.56,906v9.12h50.32c0,4.56-2.75,9.12-6.4,10-.92,0-2.75.92-4.58.92H891.09V902.39c0-5.47,5.49-8.2,11-8.2h39.34v-9.12H891.09c-.91-6.39,3.66-11.86,9.15-11.86h47.58c5.49,0,9.15,4.56,9.15,10.94V896A10.56,10.56,0,0,1,946,907H910.3C910.3,906,909.39,906,907.56,906Z" transform="translate(-137.78 -387.52)"/><path class="cls-1" d="M998.14,927H975.26a10.56,10.56,0,0,1-11-10.95V883.24c0-6.38,4.58-10,11-10H1021c6.4,0,10.06,3.65,10.06,9.12V917c0,6.38-4.57,9.12-11,9.12C1013.69,927,1006.37,927,998.14,927Zm-17.39-12.77h35.68v-30.1H980.75Z" transform="translate(-137.78 -387.52)"/><path class="cls-1" d="M856.32,905.13c-3.66-6.38-6.4-11.86-10.06-19.15-4.57,8.21-9.15,16.41-12.81,23.71-2.74,4.56-4.57,9.12-7.32,12.77-.91,1.82-1.83,2.73-3.66,2.73H806a4.46,4.46,0,0,0,.92-2.73c9.15-16.42,18.3-31.92,26.53-48.34.91-1.82,1.83-2.73,4.57-2.73h16.47a9.24,9.24,0,0,1,2.75.91c10.06,17.33,19.21,34.65,29.28,52.89h-11.9c-6.4.92-10.06-.91-11.89-7.29-.92-1.83-1.83-2.74-3.66-2.74H831.62a66.81,66.81,0,0,0,6.4-10.94c0-.91,1.83-.91,2.75-.91C846.26,905.13,850.83,905.13,856.32,905.13Z" transform="translate(-137.78 -387.52)"/><path class="cls-1" d="M577.27,926.11H559.89a2.92,2.92,0,0,1-2.74-2.74c-1.83-6.38-6.41-7.3-11.9-7.3-7.32.92-14.64,0-22,0a67.19,67.19,0,0,0,6.41-10.94c0-.91,1.83-.91,2.74-.91h14.64c-3.66-6.39-6.4-11.86-10.06-18.24-.92.91-.92,1.82-1.83,2.73-6.41,11.86-11.9,22.8-18.3,34.66-.92,1.82-1.83,2.74-3.66,2.74H496.76c.91-.92.91-2.74,1.83-3.65,9.15-16.42,18.3-31.92,26.53-47.43a5,5,0,0,1,4.58-2.73h16.47a7,7,0,0,1,3.66,1.82c9.15,18.24,18.29,34.66,27.44,52Z" transform="translate(-137.78 -387.52)"/><path class="cls-1" d="M409.84,926.11c2.75-4.56,4.58-8.21,6.41-11.86,7.32-12.77,14.64-26.45,22-40.13.91-1.82,1.83-2.73,4.57-2.73h16.47c.91,0,2.74,0,3.66.91,9.15,17.33,19.21,34.65,29.28,52.89h-11.9c-5.49.92-8.23-.91-10.06-6.38-.92-2.74-2.75-3.65-5.49-3.65H438.21a68.27,68.27,0,0,0,6.4-10.94c0-.91,1.83-.91,2.74-.91H462c-3.66-6.39-6.4-11.86-10.06-19.16-.92.92-.92,2.74-1.83,3.65-6.4,11-11.89,22.8-18.3,33.75-.91,1.82-1.83,2.73-4.57,2.73C420.82,926.11,416.25,926.11,409.84,926.11Z" transform="translate(-137.78 -387.52)"/><path class="cls-1" d="M656.87,884.15V872.3h66.79v11.85H698v42H682.49v-42Z" transform="translate(-137.78 -387.52)"/><path class="cls-1" d="M356.78,894.19h32V872.3h15.55v52.89H388.8V905.13h-32Z" transform="translate(-137.78 -387.52)"/><path class="cls-1" d="M352.2,926.11H337.56V872.3H352.2Z" transform="translate(-137.78 -387.52)"/><path class="cls-1" d="M1054,907v9.12h50.32c0,4.56-2.75,9.12-6.41,10-.91,0-2.74.91-4.57.91h-55.81V903.31c0-5.48,5.49-8.21,11-8.21h39.34V886h-50.32c-.92-6.39,3.66-11.86,9.15-11.86h47.57c5.49,0,9.15,4.56,9.15,11v11.85a10.55,10.55,0,0,1-11,11h-35.68C1056.69,907,1055.78,907,1054,907Z" transform="translate(-137.78 -387.52)"/><path class="cls-1" d="M1127.14,907v9.12h50.32c0,4.56-2.74,9.12-6.4,10-.92,0-2.75.91-4.58.91h-55.81V903.31c0-5.48,5.49-8.21,11-8.21H1161V886h-50.32c-.91-6.39,3.66-11.86,9.15-11.86h47.58c5.49,0,9.15,4.56,9.15,11v11.85a10.56,10.56,0,0,1-11,11h-35.68C1129.88,907,1129,907,1127.14,907Z" transform="translate(-137.78 -387.52)"/></svg>